<?xml version="1.0" encoding="UTF-8"?>
<svg version="1.1" xmlns="http://www.w3.org/2000/svg" width="629" height="342">
<path d="M0 0 C207.57 0 415.14 0 629 0 C629 112.86 629 225.72 629 342 C421.43 342 213.86 342 0 342 C0 229.14 0 116.28 0 0 Z " fill="#FDFDFD" transform="translate(0,0)"/>
<path d="M0 0 C1.14825256 -0.00430527 1.14825256 -0.00430527 2.31970215 -0.00869751 C3.93693787 -0.0107375 5.5541983 -0.00521213 7.17138672 0.00732422 C9.64737091 0.02337992 12.12172285 0.00747453 14.59765625 -0.01171875 C16.16927444 -0.00973631 17.74089161 -0.0058926 19.3125 0 C20.05318726 -0.00607269 20.79387451 -0.01214539 21.55700684 -0.0184021 C24.39237939 0.02041088 26.63330591 0.1075985 29.14086914 1.50219727 C30.70031518 4.41448806 30.38024971 6.85775763 30.24609375 10.13671875 C30.21448041 11.51765298 30.18714633 12.89869026 30.16357422 14.27978516 C30.14275787 15.36492401 30.14275787 15.36492401 30.121521 16.47198486 C29.9136025 33.23478538 33.26191689 44.58459591 43.15625 58.3984375 C44.13295713 59.83756087 45.10828625 61.27762073 46.08203125 62.71875 C51.19700259 70.10783903 56.93524563 76.91528383 63.15625 83.3984375 C63.60629395 83.88489746 64.05633789 84.37135742 64.52001953 84.87255859 C85.67804646 107.72322768 115.64943087 125.98379087 147.29101562 127.30322266 C153.28728158 127.50248507 159.28206315 127.59484033 165.28125 127.6484375 C166.53083496 127.6697876 167.78041992 127.6911377 169.06787109 127.71313477 C176.80404227 127.74105036 183.80461023 126.88307194 191.32373047 125.04589844 C194.15625 124.3984375 194.15625 124.3984375 197.15625 124.3984375 C197.15625 123.7384375 197.15625 123.0784375 197.15625 122.3984375 C197.84589844 122.22828125 198.53554688 122.058125 199.24609375 121.8828125 C204.90077338 120.42454121 210.11704487 118.7085058 215.37890625 116.16796875 C217.15625 115.3984375 217.15625 115.3984375 219.15625 115.3984375 C219.15625 114.7384375 219.15625 114.0784375 219.15625 113.3984375 C219.82269531 113.058125 220.48914063 112.7178125 221.17578125 112.3671875 C250.94252407 96.71362764 271.0021202 71.37299011 287.01220703 42.42456055 C288.15625 40.3984375 288.15625 40.3984375 289.76879883 38.125 C291.5363332 34.65151349 291.59701662 31.57114969 291.59765625 27.76171875 C291.61086411 27.04106735 291.62407196 26.32041595 291.63768005 25.57792664 C291.67839755 23.28888989 291.70020815 21.00025341 291.71875 18.7109375 C291.74253469 16.41103002 291.77059963 14.1114995 291.81053162 11.81181335 C291.83490058 10.38406035 291.8497495 8.95610667 291.85414124 7.52815247 C291.93168191 2.62300559 291.93168191 2.62300559 294.15625 0.3984375 C296.76233838 0.18644549 299.25947822 0.09445624 301.8671875 0.09765625 C302.63173248 0.09337112 303.39627747 0.089086 304.18399048 0.08467102 C305.80298878 0.0789236 307.42201292 0.0784305 309.04101562 0.08276367 C311.5147738 0.0859165 313.98732792 0.06249616 316.4609375 0.03710938 C318.03385266 0.03483565 319.60677103 0.03413322 321.1796875 0.03515625 C321.91835052 0.0259465 322.65701355 0.01673676 323.4180603 0.00724792 C326.45635321 0.03451844 328.84955341 0.26034849 331.63427734 1.51416016 C333.88528565 4.30101966 333.57429464 6.36630709 333.484375 9.91015625 C333.47462646 11.21782959 333.46487793 12.52550293 333.45483398 13.87280273 C333.44043777 14.90568924 333.44043777 14.90568924 333.42575073 15.95944214 C333.31398032 28.14766417 333.89458014 38.30758979 340.95751953 48.62695312 C342.24136698 50.52422341 343.40208059 52.46806316 344.55859375 54.4453125 C349.77798076 63.26828982 355.66602046 71.47312214 362.15625 79.3984375 C362.60693848 79.95208984 363.05762695 80.50574219 363.52197266 81.07617188 C385.76622252 108.21802527 413.64187424 130.68143523 446.15625 144.3984375 C448.94720015 145.71284131 451.70903979 147.08236122 454.46875 148.4609375 C455.18353516 148.81220703 455.89832031 149.16347656 456.63476562 149.52539062 C461.91670583 152.15889333 461.91670583 152.15889333 464.15625 154.3984375 C464.72448055 158.7007545 464.62387853 160.7116081 462.15625 164.3359375 C458.38465602 166.92890836 455.55384183 167.03799446 451.15625 166.3984375 C447.57338413 165.25373914 444.23365647 163.70719712 440.84375 162.0859375 C439.88678223 161.63879395 438.92981445 161.19165039 437.94384766 160.73095703 C428.35671792 156.1678444 419.18364193 150.97800502 410.15625 145.3984375 C409.09535156 144.74488281 408.03445313 144.09132812 406.94140625 143.41796875 C388.48703453 131.54540313 371.40671138 117.0877434 357.15625 100.3984375 C356.25569002 99.36546528 355.35468689 98.33287914 354.453125 97.30078125 C338.07368119 78.23329989 338.07368119 78.23329989 334.15625 70.3984375 C333.82625 103.0684375 333.49625 135.7384375 333.15625 169.3984375 C338.43625 169.7284375 343.71625 170.0584375 349.15625 170.3984375 C349.15625 171.0584375 349.15625 171.7184375 349.15625 172.3984375 C350.15978516 172.47191406 350.15978516 172.47191406 351.18359375 172.546875 C357.47801626 173.03691058 363.75681924 173.63824756 370.03125 174.3359375 C370.744021 174.41054199 371.45679199 174.48514648 372.19116211 174.56201172 C376.42941776 175.04800234 380.13279997 176.03067737 384.15625 177.3984375 C386.60643787 177.82341655 389.06588927 178.19782382 391.53125 178.5234375 C393.39910156 178.77480469 393.39910156 178.77480469 395.3046875 179.03125 C396.24570312 179.15242187 397.18671875 179.27359375 398.15625 179.3984375 C398.15625 180.0584375 398.15625 180.7184375 398.15625 181.3984375 C399.34992187 181.49125 400.54359375 181.5840625 401.7734375 181.6796875 C408.42757325 182.41932529 414.8164146 184.20930422 421.28125 185.8984375 C423.74132511 186.53718484 426.20224076 187.17270534 428.6640625 187.8046875 C429.74316895 188.08634766 430.82227539 188.36800781 431.93408203 188.65820312 C435.32807 189.43791001 438.70398351 189.95171847 442.15625 190.3984375 C442.15625 191.0584375 442.15625 191.7184375 442.15625 192.3984375 C442.7853125 192.50800781 443.414375 192.61757812 444.0625 192.73046875 C460.19220111 195.71835013 460.19220111 195.71835013 464.15625 201.3984375 C464.75809094 205.07206226 464.71384134 208.68379624 464.65625 212.3984375 C464.67171875 213.39617187 464.6871875 214.39390625 464.703125 215.421875 C464.66495478 222.5406216 464.66495478 222.5406216 462.5625 226.0859375 C459.17473579 227.93380889 456.9810026 227.81670697 453.15625 227.3984375 C450.60618587 226.64623981 448.1977312 225.83329502 445.71875 224.8984375 C431.8477468 219.9926932 417.46098038 216.76728517 403.15625 213.3984375 C402.13354004 213.15738281 401.11083008 212.91632813 400.05712891 212.66796875 C383.68522384 208.88255717 367.07789013 206.34428029 350.48901367 203.72045898 C349.5665686 203.57396408 348.64412354 203.42746918 347.69372559 203.27653503 C345.94264092 202.99907009 344.19118892 202.72391079 342.43933105 202.45137024 C339.24430414 201.94554569 336.23111529 201.4233926 333.15625 200.3984375 C333.15625 219.5384375 333.15625 238.6784375 333.15625 258.3984375 C337.44625 258.3984375 341.73625 258.3984375 346.15625 258.3984375 C346.15625 259.0584375 346.15625 259.7184375 346.15625 260.3984375 C346.795625 260.6871875 347.435 260.9759375 348.09375 261.2734375 C350.15625 262.3984375 350.15625 262.3984375 351.15625 264.3984375 C351.36036054 267.35220862 351.48007545 270.25444439 351.53125 273.2109375 C351.56863281 274.01853516 351.60601562 274.82613281 351.64453125 275.65820312 C351.65613281 276.44517578 351.66773438 277.23214844 351.6796875 278.04296875 C351.69950684 278.75815674 351.71932617 279.47334473 351.73974609 280.21020508 C350.82014431 283.65890414 348.86494 285.14720771 346.15625 287.3984375 C342.96238708 288.02662659 342.96238708 288.02662659 339.31811523 288.02954102 C338.31716324 288.04027397 338.31716324 288.04027397 337.29598999 288.05122375 C335.10156719 288.06806233 332.90920143 288.04874284 330.71484375 288.02734375 C329.18457368 288.02817282 327.65430371 288.03063363 326.1240387 288.03465271 C322.92201835 288.03750722 319.72069886 288.02284302 316.51879883 287.99536133 C312.41719021 287.96124914 308.31683204 287.96730899 304.21516323 287.9860239 C301.05721128 287.99659761 297.89954978 287.98765343 294.74162483 287.97263908 C293.22937953 287.9674614 291.71710385 287.96793409 290.20486259 287.97418404 C288.09090918 287.97964235 285.97874018 287.95924738 283.86499023 287.93188477 C282.06226906 287.9225869 282.06226906 287.9225869 280.22312927 287.9131012 C276.56590161 287.29936908 275.38050175 286.31027685 273.15625 283.3984375 C272.6862793 281.14013672 272.6862793 281.14013672 272.73046875 278.703125 C272.73884766 277.82269531 272.74722656 276.94226563 272.75585938 276.03515625 C272.79936523 274.66810547 272.79936523 274.66810547 272.84375 273.2734375 C272.85341797 272.35433594 272.86308594 271.43523437 272.87304688 270.48828125 C272.98705832 263.73682086 272.98705832 263.73682086 274.15625 261.3984375 C274.81625 261.3984375 275.47625 261.3984375 276.15625 261.3984375 C276.15625 260.7384375 276.15625 260.0784375 276.15625 259.3984375 C281.43625 259.3984375 286.71625 259.3984375 292.15625 259.3984375 C292.15625 237.9484375 292.15625 216.4984375 292.15625 194.3984375 C285.22625 194.3984375 278.29625 194.3984375 271.15625 194.3984375 C267.5896301 194.23597255 264.07885924 194.05257699 260.52905273 193.75537109 C258.68278977 193.61915844 256.83643574 193.48417608 254.99000549 193.35025024 C254.04342134 193.27994221 253.0968372 193.20963417 252.12156868 193.13719559 C224.44651577 191.13027163 196.81856339 190.93413724 169.08227539 191.00732422 C162.53444816 191.02440524 155.98698745 191.01425058 149.43917274 190.99698257 C113.94370608 190.9180672 78.18622321 191.07163584 42.87927341 195.20572853 C38.98082136 195.48162284 35.06445241 195.3984375 31.15625 195.3984375 C31.15625 216.1884375 31.15625 236.9784375 31.15625 258.3984375 C34.78625 258.3984375 38.41625 258.3984375 42.15625 258.3984375 C42.15625 259.0584375 42.15625 259.7184375 42.15625 260.3984375 C42.94 260.5015625 43.72375 260.6046875 44.53125 260.7109375 C47.15625 261.3984375 47.15625 261.3984375 49.15625 264.3984375 C49.62738251 267.34085709 49.57245723 270.29718087 49.59375 273.2734375 C49.62662109 274.07652344 49.65949219 274.87960937 49.69335938 275.70703125 C49.70044922 276.48949219 49.70753906 277.27195312 49.71484375 278.078125 C49.72829834 278.78694824 49.74175293 279.49577148 49.75561523 280.22607422 C48.80990153 283.65375672 46.85514099 285.15365571 44.15625 287.3984375 C40.96238708 288.02662659 40.96238708 288.02662659 37.31811523 288.02954102 C36.31716324 288.04027397 36.31716324 288.04027397 35.29598999 288.05122375 C33.10156719 288.06806233 30.90920143 288.04874284 28.71484375 288.02734375 C27.18457368 288.02817282 25.65430371 288.03063363 24.1240387 288.03465271 C20.92201835 288.03750722 17.72069886 288.02284302 14.51879883 287.99536133 C10.41719021 287.96124914 6.31683204 287.96730899 2.21516323 287.9860239 C-0.94278872 287.99659761 -4.10045022 287.98765343 -7.25837517 287.97263908 C-8.77062047 287.9674614 -10.28289615 287.96793409 -11.79513741 287.97418404 C-13.90909082 287.97964235 -16.02125982 287.95924738 -18.13500977 287.93188477 C-19.93773094 287.9225869 -19.93773094 287.9225869 -21.77687073 287.9131012 C-25.43571114 287.29909844 -26.61976794 286.31288802 -28.84375 283.3984375 C-29.34545898 281.06420898 -29.34545898 281.06420898 -29.33984375 278.51953125 C-29.34048828 277.59849609 -29.34113281 276.67746094 -29.34179688 275.72851562 C-29.32181641 274.77396484 -29.30183594 273.81941406 -29.28125 272.8359375 C-29.28833984 271.87751953 -29.29542969 270.91910156 -29.30273438 269.93164062 C-29.23769559 262.79238309 -29.23769559 262.79238309 -25.84375 259.3984375 C-20.89375 259.3984375 -15.94375 259.3984375 -10.84375 259.3984375 C-10.84375 239.9284375 -10.84375 220.4584375 -10.84375 200.3984375 C-15.79375 201.3884375 -15.79375 201.3884375 -20.84375 202.3984375 C-23.02842456 202.76342818 -25.21578641 203.11293952 -27.40625 203.44140625 C-52.70190796 207.32370116 -77.73559042 212.16099013 -102.53125 218.5234375 C-103.75263672 218.83579346 -104.97402344 219.14814941 -106.23242188 219.4699707 C-111.14629646 220.76212025 -116.02090732 222.08875496 -120.82275391 223.75292969 C-121.81961967 224.09806107 -121.81961967 224.09806107 -122.83662415 224.45016479 C-124.68946337 225.10149342 -126.5360082 225.77064877 -128.38208008 226.44091797 C-132.1207282 227.4750514 -134.98837524 227.86278682 -138.84375 227.3984375 C-141.21031423 225.32739102 -141.74606527 223.98045674 -142.26367188 220.89648438 C-142.31638312 217.89616013 -142.35115038 214.89928972 -142.34375 211.8984375 C-142.37210938 210.85300781 -142.40046875 209.80757812 -142.4296875 208.73046875 C-142.44922129 201.1025232 -142.44922129 201.1025232 -139.61328125 197.8046875 C-132.16051079 194.02048811 -124.31191561 191.9069323 -116.21020508 189.96435547 C-112.7389066 189.13073034 -109.29454111 188.26004203 -105.87109375 187.24609375 C-96.02566875 184.33476163 -86.09191177 182.10564488 -76.03125 180.0859375 C-75.36550964 179.95092834 -74.69976929 179.81591919 -74.01385498 179.67681885 C-61.87848067 177.22801682 -61.87848067 177.22801682 -56.84375 177.3984375 C-56.84375 176.7384375 -56.84375 176.0784375 -56.84375 175.3984375 C-50.93606086 174.5403544 -45.02785514 173.68595477 -39.11914062 172.83496094 C-37.10922869 172.54495751 -35.09946153 172.2539489 -33.08984375 171.96191406 C-30.2008961 171.54227443 -27.31144677 171.12625495 -24.421875 170.7109375 C-23.52382141 170.57969482 -22.62576782 170.44845215 -21.70050049 170.31323242 C-20.85993103 170.19310791 -20.01936157 170.0729834 -19.15332031 169.94921875 C-18.41607727 169.84262939 -17.67883423 169.73604004 -16.91925049 169.6262207 C-14.84375 169.3984375 -14.84375 169.3984375 -10.84375 169.3984375 C-11.17375 136.3984375 -11.50375 103.3984375 -11.84375 69.3984375 C-15.80375 74.6784375 -19.76375 79.9584375 -23.84375 85.3984375 C-28.95852859 91.80896 -34.20151683 98.00834539 -39.73046875 104.0625 C-41.62817317 106.1601474 -43.4572493 108.29947532 -45.28125 110.4609375 C-59.94819468 127.15664324 -81.08710563 142.16657536 -100.84375 152.3984375 C-101.50375 152.3984375 -102.16375 152.3984375 -102.84375 152.3984375 C-102.84375 153.0584375 -102.84375 153.7184375 -102.84375 154.3984375 C-103.85566406 154.82125 -104.86757812 155.2440625 -105.91015625 155.6796875 C-109.61578452 157.26741457 -113.19364788 159.05822764 -116.78125 160.8984375 C-129.69931723 167.3984375 -129.69931723 167.3984375 -135.09375 167.3984375 C-138.80620268 166.04845471 -140.01217297 164.91506539 -141.84375 161.3984375 C-141.96710429 158.29312739 -141.67940587 155.39385185 -140.84375 152.3984375 C-139.85375 151.4084375 -139.85375 151.4084375 -138.84375 150.3984375 C-137.52375 150.3984375 -136.20375 150.3984375 -134.84375 150.3984375 C-134.84375 149.7384375 -134.84375 149.0784375 -134.84375 148.3984375 C-133.626875 148.0271875 -132.41 147.6559375 -131.15625 147.2734375 C-125.74937216 145.49123413 -120.69139661 143.06906061 -115.56640625 140.60546875 C-112.84375 139.3984375 -112.84375 139.3984375 -110.84375 139.3984375 C-110.84375 138.7384375 -110.84375 138.0784375 -110.84375 137.3984375 C-110.22371094 137.08132812 -109.60367188 136.76421875 -108.96484375 136.4375 C-90.40687197 126.65877251 -73.98060829 113.8386203 -58.84375 99.3984375 C-57.99167969 98.59921875 -57.13960938 97.8 -56.26171875 96.9765625 C-39.73633764 81.0497385 -24.76115945 60.10230774 -14.84375 39.3984375 C-14.18375 39.3984375 -13.52375 39.3984375 -12.84375 39.3984375 C-11.66060324 35.64429028 -11.68570496 32.02999254 -11.6328125 28.11328125 C-11.60476216 26.68162883 -11.57609784 25.24998834 -11.546875 23.81835938 C-11.50552093 21.57120878 -11.468614 19.32428539 -11.44238281 17.0769043 C-11.41481353 14.90106983 -11.36897074 12.7262325 -11.3203125 10.55078125 C-11.30049316 9.25132568 -11.28067383 7.95187012 -11.26025391 6.61303711 C-10.84375 3.3984375 -10.84375 3.3984375 -9.80419922 1.47631836 C-6.68128906 -0.24069887 -3.4730053 -0.02847422 0 0 Z " fill="#1F2120" transform="translate(154.84375,20.6015625)"/>
<path d="M0 0 C0.66 0 1.32 0 2 0 C2 31.35 2 62.7 2 95 C-10.49230769 95 -10.49230769 95 -16.375 94.5625 C-18.08816406 94.44068359 -18.08816406 94.44068359 -19.8359375 94.31640625 C-22.62267183 94.03773282 -25.26262016 93.57098899 -28 93 C-28.25637894 85.49831313 -28.45106471 77.99708694 -28.56993389 70.49199963 C-28.62703165 67.00552931 -28.70426278 63.52208296 -28.82983398 60.03735352 C-29.73126591 34.34583482 -29.73126591 34.34583482 -24.36691284 28.45324707 C-22.0503467 26.43028025 -19.54265019 24.72452543 -17 23 C-14.92828646 20.76867163 -14.92828646 20.76867163 -13.22265625 18.41796875 C-12.68962891 17.71349609 -12.15660156 17.00902344 -11.60742188 16.28320312 C-11.09759766 15.59162109 -10.58777344 14.90003906 -10.0625 14.1875 C-9.52560547 13.47658203 -8.98871094 12.76566406 -8.43554688 12.03320312 C-6.09302719 8.91272488 -3.83773021 5.78258455 -1.74609375 2.48828125 C-1.16988281 1.66714844 -0.59367187 0.84601563 0 0 Z " fill="#F7F7F7" transform="translate(445,90)"/>
<path d="M0 0 C0.66 0 1.32 0 2 0 C3.46354281 1.97193137 4.83073382 3.95613955 6.1875 6 C12.75113103 15.57570828 20.81027771 23.81027771 29 32 C29.24050903 34.44241333 29.24050903 34.44241333 29.22705078 37.55126953 C29.22689972 38.71232208 29.22674866 39.87337463 29.22659302 41.0696106 C29.21627045 42.32796722 29.20594788 43.58632385 29.1953125 44.8828125 C29.1924826 46.16735321 29.18965271 47.45189392 29.18673706 48.77536011 C29.17909809 52.19162767 29.15944752 55.60772537 29.1373291 59.02392578 C29.11687624 62.50941673 29.10773655 65.9949351 29.09765625 69.48046875 C29.07620175 76.32038231 29.04206271 83.160183 29 90 C19.16138471 91.2903102 10.1829167 91 0 91 C0 60.97 0 30.94 0 0 Z " fill="#FBFBFB" transform="translate(186,93)"/>
<path d="M0 0 C0.66 0 1.32 0 2 0 C2 14.19 2 28.38 2 43 C-5.11079716 43 -12.10535908 42.9146018 -19.1875 42.5 C-22.095625 42.335 -25.00375 42.17 -28 42 C-28 33.42 -28 24.84 -28 16 C-19 12 -19 12 -17 12 C-17 11.34 -17 10.68 -17 10 C-15.28490234 9.04287109 -15.28490234 9.04287109 -13.53515625 8.06640625 C-12.04422197 7.23185813 -10.55333921 6.39721796 -9.0625 5.5625 C-8.30775391 5.14162109 -7.55300781 4.72074219 -6.77539062 4.28710938 C-6.05673828 3.88427734 -5.33808594 3.48144531 -4.59765625 3.06640625 C-3.93258057 2.69459229 -3.26750488 2.32277832 -2.58227539 1.93969727 C-1.01422168 1.09652286 -1.01422168 1.09652286 0 0 Z " fill="#F5F5F5" transform="translate(399,139)"/>
<path d="M0 0 C9.94576271 5.52542373 9.94576271 5.52542373 13.875 7.9375 C19.15793515 11.1355032 24.56304548 14.07240911 30 17 C30 25.25 30 33.5 30 42 C20.1 42 10.2 42 0 42 C0 28.14 0 14.28 0 0 Z " fill="#F9F9F9" transform="translate(231,139)"/>
<path d="M0 0 C0 6.27 0 12.54 0 19 C-10.23 19 -20.46 19 -31 19 C-31 14.38 -31 9.76 -31 5 C-29.46988281 4.80664062 -27.93976563 4.61328125 -26.36328125 4.4140625 C-24.34630915 4.15138706 -22.32938451 3.88834713 -20.3125 3.625 C-18.80139648 3.43550781 -18.80139648 3.43550781 -17.25976562 3.2421875 C-16.28330078 3.11328125 -15.30683594 2.984375 -14.30078125 2.8515625 C-13.40528564 2.73635254 -12.50979004 2.62114258 -11.5871582 2.50244141 C-8.95057033 2.07735844 -8.95057033 2.07735844 -6.41870117 0.94677734 C-4 0 -4 0 0 0 Z " fill="#F2F2F2" transform="translate(355,161)"/>
<path d="M0 0 C2.3821875 0.433125 2.3821875 0.433125 4.8125 0.875 C13.49275211 2.3338659 22.24450172 3.13910373 31 4 C31 8.62 31 13.24 31 18 C20.77 18 10.54 18 0 18 C0 12.06 0 6.12 0 0 Z " fill="#F5F5F5" transform="translate(277,162)"/>
<path d="M0 0 C0.33 0 0.66 0 1 0 C1 33.33 1 66.66 1 101 C-0.32 100.67 -1.64 100.34 -3 100 C-2.01 100 -1.02 100 0 100 C-0.33 68.65 -0.66 37.3 -1 5 C-1.99 5.66 -2.98 6.32 -4 7 C-2.92598892 4.08482708 -2.22189824 2.22189824 0 0 Z " fill="#B4B4B3" transform="translate(143,89)"/>
<path d="M0 0 C1.93359375 0.19916016 1.93359375 0.19916016 3.90625 0.40234375 C20.92328939 2.06093681 37.91691156 2.60117303 55 3 C49.69776224 6.37018718 43.05493883 5.33304618 36.99584961 5.31567383 C34.73304806 5.31256263 32.4716196 5.33580502 30.20898438 5.36132812 C20.57426764 5.40342648 11.29605289 4.73721971 2 2 C1.34 1.34 0.68 0.68 0 0 Z " fill="#343535" transform="translate(282,146)"/>
<path d="M0 0 C1.32 0.66 2.64 1.32 4 2 C3.5155542 2.35811768 3.0311084 2.71623535 2.53198242 3.08520508 C0.29976111 5.87521492 0.56554372 8.09809763 0.48828125 11.63671875 C0.45283203 12.93544922 0.41738281 14.23417969 0.38085938 15.57226562 C0.3577595 16.94400517 0.3349771 18.3157501 0.3125 19.6875 C0.27932458 21.07099607 0.24483469 22.45446129 0.20898438 23.83789062 C0.12636759 27.22517883 0.05725942 30.61220357 0 34 C-0.33 34 -0.66 34 -1 34 C-1.19217298 29.47975725 -1.37090744 24.95926059 -1.53710938 20.43798828 C-1.59557259 18.89943132 -1.65773085 17.3610102 -1.72363281 15.82275391 C-1.81762837 13.61385835 -1.89840086 11.40481787 -1.9765625 9.1953125 C-2.00875885 8.50567413 -2.0409552 7.81603577 -2.0741272 7.10549927 C-2.12770248 5.40433023 -2.0726782 3.70046002 -2 2 C-1.34 1.34 -0.68 0.68 0 0 Z " fill="#252826" transform="translate(147,21)"/>
<path d="M0 0 C0.99 0.33 1.98 0.66 3 1 C-0.26818196 5.22941195 -3.19151532 8.44229538 -8 11 C-10.18359375 10.59765625 -10.18359375 10.59765625 -12 10 C-10.82630859 9.04287109 -10.82630859 9.04287109 -9.62890625 8.06640625 C-8.61699219 7.24011719 -7.60507813 6.41382813 -6.5625 5.5625 C-5.55316406 4.73878906 -4.54382813 3.91507813 -3.50390625 3.06640625 C-1.70216039 1.58798996 -1.70216039 1.58798996 0 0 Z " fill="#303231" transform="translate(86,129)"/>
<path d="M0 0 C-6.1878107 3.46517399 -12.05374496 4.24372825 -19 4 C-16.4931838 1.4931838 -14.60836312 1.17720646 -11.1875 0.3125 C-9.63095703 -0.09548828 -9.63095703 -0.09548828 -8.04296875 -0.51171875 C-4.98399548 -1.00256812 -2.96193072 -0.8157628 0 0 Z " fill="#3A3C3B" transform="translate(61,236)"/>
<path d="M0 0 C0 0.66 0 1.32 0 2 C1.32 1.67 2.64 1.34 4 1 C4 1.66 4 2.32 4 3 C-3.92 3 -11.84 3 -20 3 C-20 2.67 -20 2.34 -20 2 C-17.2294096 1.66453392 -14.45856036 1.33154158 -11.6875 1 C-10.90181641 0.90460938 -10.11613281 0.80921875 -9.30664062 0.7109375 C-8.54931641 0.62070313 -7.79199219 0.53046875 -7.01171875 0.4375 C-6.31522217 0.35371094 -5.61872559 0.26992187 -4.90112305 0.18359375 C-3 0 -3 0 0 0 Z " fill="#111312" transform="translate(293,207)"/>
<path d="M0 0 C0 0.66 0 1.32 0 2 C-6.74153283 3.25841946 -13.13484138 4.26404456 -20 4 C-20 3.67 -20 3.34 -20 3 C-18.35 2.67 -16.7 2.34 -15 2 C-15 1.67 -15 1.34 -15 1 C-9.9752761 0.37470103 -5.07471573 -0.13012092 0 0 Z " fill="#3B3C3B" transform="translate(346,162)"/>
<path d="M0 0 C0.66 1.32 1.32 2.64 2 4 C-0.64 6.31 -3.28 8.62 -6 11 C-6.66 10.67 -7.32 10.34 -8 10 C-5.36 6.7 -2.72 3.4 0 0 Z " fill="#2F3130" transform="translate(112,102)"/>
<path d="M0 0 C0.33 0 0.66 0 1 0 C1.07347656 1.26457031 1.07347656 1.26457031 1.1484375 2.5546875 C1.22320312 3.65039062 1.29796875 4.74609375 1.375 5.875 C1.44460937 6.96554687 1.51421875 8.05609375 1.5859375 9.1796875 C1.73253491 12.13046474 1.73253491 12.13046474 4 14 C3.67 14.66 3.34 15.32 3 16 C1.0625 15.1875 1.0625 15.1875 -1 14 C-1.33 13.01 -1.66 12.02 -2 11 C-1.34 11 -0.68 11 0 11 C0 7.37 0 3.74 0 0 Z " fill="#282A28" transform="translate(128,291)"/>
<path d="M0 0 C0 0.66 0 1.32 0 2 C-9.41002278 4.29612756 -9.41002278 4.29612756 -14 4 C-13.1028125 3.566875 -13.1028125 3.566875 -12.1875 3.125 C-7.49137273 0.70984884 -5.4430357 -0.20539757 0 0 Z " fill="#454545" transform="translate(93,228)"/>
<path d="M0 0 C0 0.66 0 1.32 0 2 C-3.1999003 5.01704885 -5.61537866 6.49890042 -10 7 C-4.65789474 0 -4.65789474 0 0 0 Z " fill="#323433" transform="translate(410,111)"/>
<path d="M0 0 C0.79921875 0.11085937 1.5984375 0.22171875 2.421875 0.3359375 C3.32679688 0.47902344 3.32679688 0.47902344 4.25 0.625 C4.25 1.285 4.25 1.945 4.25 2.625 C-0.04 2.295 -4.33 1.965 -8.75 1.625 C-4.77033543 -0.36483228 -4.07324868 -0.59900716 0 0 Z " fill="#3F403F" transform="translate(499.75,220.375)"/>
<path d="M0 0 C4.31392226 0.4793247 6.16569547 1.7457985 9 5 C8.34 6.32 7.68 7.64 7 9 C6.7525 8.195625 6.505 7.39125 6.25 6.5625 C5.8375 5.716875 5.425 4.87125 5 4 C2.97536745 3.34786708 2.97536745 3.34786708 1 3 C0.67 2.01 0.34 1.02 0 0 Z " fill="#272827" transform="translate(610,217)"/>
<path d="M0 0 C0.66 0.33 1.32 0.66 2 1 C-1.07999946 4.67230705 -3.2482602 5.56802365 -8 6 C-5.38485683 3.87961365 -2.80362384 1.86908256 0 0 Z " fill="#3E3F3F" transform="translate(386,127)"/>
<path d="M0 0 C0.33 0 0.66 0 1 0 C1.125 6.625 1.125 6.625 0 10 C-0.66 10 -1.32 10 -2 10 C-2.33 10.66 -2.66 11.32 -3 12 C-3 8 -3 8 -2 6 C-1.34 6 -0.68 6 0 6 C0 4.02 0 2.04 0 0 Z " fill="#272928" transform="translate(448,50)"/>
<path d="M0 0 C0.66 0.99 1.32 1.98 2 3 C-1.96 2.67 -5.92 2.34 -10 2 C-10 1.67 -10 1.34 -10 1 C-6.61292998 0.22581257 -3.47338282 -0.37550085 0 0 Z " fill="#4E4F4E" transform="translate(514,222)"/>
<path d="M0 0 C2.97 0.33 5.94 0.66 9 1 C5.91111478 3.05925681 5.29064073 3.2390374 1.8125 3.125 C-0.0746875 3.063125 -0.0746875 3.063125 -2 3 C-1.34 2.01 -0.68 1.02 0 0 Z " fill="#282A29" transform="translate(205,183)"/>
<path d="M0 0 C1.3921875 0.0928125 1.3921875 0.0928125 2.8125 0.1875 C2.8125 0.8475 2.8125 1.5075 2.8125 2.1875 C-1.6425 2.6825 -1.6425 2.6825 -6.1875 3.1875 C-3.1875 0.1875 -3.1875 0.1875 0 0 Z " fill="#343635" transform="translate(105.1875,224.8125)"/>
<path d="M0 0 C0.33 0 0.66 0 1 0 C1 2.64 1 5.28 1 8 C0.34 7.01 -0.32 6.02 -1 5 C-1.99 5.66 -2.98 6.32 -4 7 C-2.92598892 4.08482708 -2.22189824 2.22189824 0 0 Z " fill="#BDBEBD" transform="translate(143,89)"/>
<path d="M0 0 C-0.33 0.66 -0.66 1.32 -1 2 C-3.97 1.67 -6.94 1.34 -10 1 C-10 0.67 -10 0.34 -10 0 C-6.33694766 -0.74926071 -3.57644848 -1.2380014 0 0 Z " fill="#2D2F2E" transform="translate(73,204)"/>
</svg>
